<?xml version="1.0" encoding="UTF-8"?>
<svg id="_图层_1" data-name="图层 1" xmlns="http://www.w3.org/2000/svg" viewBox="0 0 1280 720">
  <path d="M175.59,276.33h15.68v56.57c2.73-5.28,12.95-12.61,30.84-12.61,24.03,0,37.49,11.59,37.49,36.81v52.48h-15.85v-51.8c0-2.9-.17-5.79-1.19-8.69-2.9-8.86-12.44-13.29-23.34-13.29-12.61,0-25.73,6.13-27.6,16.36-.34,1.87-.34,4.09-.34,5.96v51.46h-15.68v-133.25Z" fill="#c31341" stroke-width="0"/>
  <path d="M288.73,279.06c5.96,0,10.73,4.77,10.73,10.73s-4.77,10.73-10.73,10.73-10.73-4.77-10.73-10.73,4.77-10.73,10.73-10.73ZM281.06,323.7h15.51v85.88h-15.51v-85.88Z" fill="#c31341" stroke-width="0"/>
  <path d="M338.32,400.21v9.37h-15.68v-133.25h15.68v57.42c5.28-6.99,15.68-13.29,28.63-13.46,30.33-.34,44.3,23.69,44.47,45.84.17,22.32-14.14,45.84-44.47,45.84-12.95,0-23.34-5.28-28.63-11.76ZM366.94,396.63c19.43.51,28.63-11.76,28.63-30.5s-9.2-31.01-28.63-30.5c-19.08.51-28.63,12.1-28.63,30.5s9.54,29.99,28.63,30.5Z" fill="#c31341" stroke-width="0"/>
  <path d="M425.22,382.49c0-19.77,13.8-23.85,34.59-25.22l33.23-2.04c0-14.14-5.79-19.42-24.37-19.42-14.82,0-21.98,4.26-24.2,11.76h-15.34c.51-13.12,11.76-27.26,42.43-27.26,23.17,1.02,37.15,8.86,37.15,36.98v52.31h-15.51v-9.37c-3.75,4.6-11.25,11.76-33.4,11.76-24.88,0-34.59-16.53-34.59-29.48ZM465.77,396.46c14.48,0,27.09-6.64,27.09-18.4v-8.86c-11.76.51-28.29,1.54-31.35,1.71-16.36,1.19-20.62,3.41-20.62,11.59,0,4.77,2.39,13.97,24.88,13.97Z" fill="#c31341" stroke-width="0"/>
  <path d="M531.54,323.7h15.85v9.2c2.73-5.28,12.95-12.44,30.84-12.61,23.86-.17,37.49,11.59,37.49,36.81v52.48h-15.85v-51.8c0-2.9-.34-5.79-1.19-8.69-2.73-8.69-12.44-13.29-23.34-13.29-12.61,0-25.73,6.13-27.6,16.36-.34,1.87-.34,4.09-.34,5.96v51.46h-15.85v-85.88Z" fill="#c31341" stroke-width="0"/>
  <path d="M633.44,382.49c0-19.77,13.8-23.85,34.59-25.22l33.23-2.04c0-14.14-5.79-19.42-24.37-19.42-14.82,0-21.98,4.26-24.2,11.76h-15.34c.51-13.12,11.76-27.26,42.43-27.26,23.17,1.02,37.15,8.86,37.15,36.98v52.31h-15.51v-9.37c-3.75,4.6-11.25,11.76-33.4,11.76-24.88,0-34.59-16.53-34.59-29.48ZM674,396.46c14.48,0,27.09-6.64,27.09-18.4v-8.86c-11.76.51-28.29,1.54-31.35,1.71-16.36,1.19-20.62,3.41-20.62,11.59,0,4.77,2.39,13.97,24.88,13.97Z" fill="#c31341" stroke-width="0"/>
  <path d="M853.08,305.3v-40.72l15.85-.51v53.16c0,37.32,27.6,64.24,69.86,89.12l-10.73,12.78c-34.93-19.77-56.91-41.06-66.79-70.54-9.37,27.09-30.33,49.07-67.31,71.05l-9.03-12.27c49.41-28.97,68.16-55.21,68.16-102.07ZM829.9,293.54l12.95,6.82c-5.11,21.3-15.33,38.85-26.92,52.48l-13.46-8.18c10.22-12.61,23.34-33.57,27.43-51.12ZM914.42,291.67l12.95,8.69c-7.67,16.19-20.45,36.98-31.69,49.24l-13.63-9.37c11.59-13.46,25.9-34.25,32.38-48.56Z" fill="#c31341" stroke-width="0"/>
  <path d="M994.5,313.48l14.48,2.56c-2.73,7.67-8.52,18.23-11.59,23.69v80.26h-14.48v-64.41c-6.65,9.03-12.61,16.36-22.32,24.88l-8.18-13.29c18.06-16.19,29.31-30.16,42.09-53.67ZM959.57,281.79h35.95v-17.04h13.12v17.04h44.81v-17.04h13.29v17.04h37.15v13.46h-37.15v15.85h-13.29v-15.85h-44.81v14.65h-13.12v-14.65h-35.95v-13.46ZM1035.4,396.46v-17.55c-8.35,6.13-13.46,9.2-23.34,14.99l-10.39-11.07c12.1-6.65,22.66-12.61,33.74-20.79v-48.39l14.31,1.53v37.83c16.19-13.29,25.05-23.17,37.66-37.66l6.99,13.12c-14.31,15.85-25.05,27.26-44.64,42.09v21.13c0,8.52.17,11.08,9.2,12.1,5.62.68,11.25.68,16.87,0,10.05-1.19,11.93-2.56,13.12-6.99,1.53-5.79,1.87-13.46,1.87-20.45l13.46,7.5c-.34,7.5-1.02,13.63-2.73,21.98-1.53,7.16-6.65,11.08-22.66,11.76-8.18.34-16.36.34-24.54,0-13.8-.51-18.91-5.62-18.91-21.13Z" fill="#c31341" stroke-width="0"/>
</svg>